 http://img291.imageshack.us/img291/2/46a3c3b6115878fb87eb2b9.jpg

Country.......: France, Germany, Russia
Genre.........: Drama, War
Date release..: 05.05.2011 [World]
Director......: Nikita Mikhalkov
Writers.......: Rustam Ibragimbekov, Nikita Mikhalkov
Duration......: 145 min.
More..........: http://www.imdb.com/title/tt1912518
Trailer.......: http://movie.mtime.com/148083/trailer/32178.html

Pilot :
Kotov returns home with a view to memories, such as in the past. Everything has changed his whole life, now will have to fight the good name and his love.

Cats :
Nikita Mikhalkov   	 ...  	Col. Sergei Petrovich Kotov
Oleg Menshikov 	... 	Dmitriy Arsentyev
Vladlen Davydov 	... 	Vsevolod Konstantinovich
Dmitriy Dyuzhev 	... 	Ivan
Viktoriya Tolstoganova 	... 	Marusya Kotova
Sergei Bachursky 		
Vladimir Ilin 	... 	Kirik
Roman Madyanov 		
Sergey Makovetskiy 		
Andrey Merzlikin 		
Anna Mikhalkova 		
Nadezhda Mikhalkova 		
Aleksey Panin 		
Evelina Sakuro 		
Maksim Sukhanov

Data Technical :
!!! SAMPLE !!!
Audio.....: Russian
Subtitles.: None
Format                           : AVI
Format/Info                      : Audio Video Interleave
File size                        : 1.37 GiB
Duration                         : 2h 24mn
Overall bit rate                 : 1 355 Kbps
Writing application              : VirtualDubMod 1.5.4.1 (build 2178/release)
Writing library                  : VirtualDubMod build 2178/release
Video
ID                               : 0
Format                           : MPEG-4 Visual
Format profile                   : Advanced Simple@L5
Format settings, BVOP            : Yes
Format settings, QPel            : No
Format settings, GMC             : No warppoints
Format settings, Matrix          : Custom
Codec ID                         : XVID
Codec ID/Hint                    : XviD
Duration                         : 2h 24mn
Bit rate                         : 1 218 Kbps
Width                            : 720 pixels
Height                           : 320 pixels
Display aspect ratio             : 2.25:1
Frame rate                       : 25.000 fps
Color space                      : YUV
Chroma subsampling               : 4:2:0
Bit depth                        : 8 bits
Scan type                        : Progressive
Bits/(Pixel*Frame)               : 0.211
Stream size                      : 1.23 GiB (90%)
Writing library                  : XviD 58
Audio
ID                               : 1
Format                           : MPEG Audio
Format version                   : Version 1
Format profile                   : Layer 3
Mode                             : Joint stereo
Codec ID                         : 55
Codec ID/Hint                    : MP3
Duration                         : 2h 24mn
Bit rate mode                    : Constant
Bit rate                         : 128 Kbps
Channel(s)                       : 2 channels
Sampling rate                    : 48.0 KHz
Stream size                      : 132 MiB (9%)
Alignment                        : Aligned on interleaves
Interleave, duration             : 40 ms (1.00 video frame)
Interleave, preload duration     : 504 ms

Screen : 
http://img820.imageshack.us/img820/1927/utomlyonnyesolntsem2tsi.jpg 
http://img546.imageshack.us/img546/1927/utomlyonnyesolntsem2tsi.jpg 
http://img34.imageshack.us/img34/1927/utomlyonnyesolntsem2tsi.jpg 
http://img28.imageshack.us/img28/1927/utomlyonnyesolntsem2tsi.jpg 
http://img709.imageshack.us/img709/1927/utomlyonnyesolntsem2tsi.jpg